<svg width="359" height="53" viewBox="0 0 359 53" fill="none" xmlns="http://www.w3.org/2000/svg">
<g clip-path="url(#clip0)">
<path d="M0 40.9H1.7C2.4 40.9 3.6 39.7 3.6 39V13.7C3.6 13 2.4 11.8 1.7 11.8H0V1H44.5V18.4H33.2L31.5 12.7H23.6V19.9H34.5V31.5H23.6V40.1H31.7L33.2 33.1H45.1V51.4H0.1V40.9H0Z" fill="#50E3C2"/>
<path d="M51.4 40.9H53.1C53.8 40.9 55 39.7 55 39V13.7C55 13 53.8 11.8 53.1 11.8H51.4V1H73.9L86.3 23.5H86.5V11.8H82.8V1H104V11.8H102.6C101.9 11.8 100.7 13 100.7 13.7V51.4H83.3L69.5 26.3H69.3V40.9H73.3V51.3H51.6V40.9H51.4Z" fill="#50E3C2"/>
<path d="M110.1 40.9H111.8C112.5 40.9 113.7 39.7 113.7 39V13.7C113.7 13 112.5 11.8 111.8 11.8H110.1V1H135.2C155.4 1 163.5 9.1 163.5 25.8C163.5 42.5 155.1 51.4 134.6 51.4H110.1V40.9ZM134.6 40.4C140.2 40.4 143.1 36 143.1 26.6C143.1 17.2 140.4 12.6 134.6 12.6H133.7V40.5H134.6V40.4Z" fill="#50E3C2"/>
<path d="M168.8 40.9H170.5C171.2 40.9 172.4 39.7 172.4 39V13.7C172.4 13 171.2 11.8 170.5 11.8H168.8V1H197.5V11.8H192.3V40.1H199.6L201.1 31.8H213V51.4H168.7L168.8 40.9Z" fill="#50E3C2"/>
<path d="M219.2 40.9H220.9C221.6 40.9 222.8 39.7 222.8 39V13.7C222.8 13 221.6 11.8 220.9 11.8H219.2V1H263.6V18.4H252.3L250.6 12.7H242.7V19.9H253.6V31.5H242.7V40.1H250.8L252.3 33.1H264.2V51.4H219.2V40.9V40.9Z" fill="#50E3C2"/>
<path d="M282.6 51.3H270.6V35H283.3L285 40.6C285.8 40.7 286.7 40.8 287.7 40.8C290.3 40.8 292.5 40 292.5 37.6C292.5 35.4 290.7 34.6 286.2 33.5C278.7 31.6 270.6 29.2 270.6 16.9C270.6 4.4 279.2 0 290 0C295.1 0 297.6 0.4 300.1 0.9H310V16H297.5L295.8 10.7C295.2 10.6 294.4 10.6 293.6 10.6C290.4 10.6 288.6 11.6 288.6 14C288.6 16.4 290.8 16.9 293.1 17.5C307.1 21.4 311.5 24.7 311.5 34.7C311.5 46 305.6 52.1 291.4 52.1C287.9 52.2 285.4 51.9 282.6 51.3Z" fill="#50E3C2"/>
<path d="M329.5 51.3H317.5V35H330.2L331.9 40.6C332.7 40.7 333.6 40.8 334.6 40.8C337.2 40.8 339.4 40 339.4 37.6C339.4 35.4 337.6 34.6 333.1 33.5C325.6 31.6 317.5 29.2 317.5 16.9C317.5 4.4 326.1 0 336.9 0C342 0 344.5 0.4 347 0.9H356.9V16H344.3L342.6 10.7C342 10.6 341.2 10.6 340.4 10.6C337.2 10.6 335.4 11.6 335.4 14C335.4 16.4 337.6 16.9 339.9 17.5C353.9 21.4 358.3 24.7 358.3 34.7C358.3 46 352.4 52.1 338.2 52.1C334.8 52.2 332.4 51.9 329.5 51.3Z" fill="#50E3C2"/>
</g>
<defs>
<clipPath id="clip0">
<rect width="358.3" height="52.1" fill="white"/>
</clipPath>
</defs>
</svg>
